<svg id="visual" viewBox="0 0 900 250" width="900" height="250" xmlns="http://www.w3.org/2000/svg" xmlns:xlink="http://www.w3.org/1999/xlink" version="1.1"><rect x="0" y="0" width="900" height="250" fill="#fff"></rect><path d="M0 97L18.8 92C37.7 87 75.3 77 112.8 78.2C150.3 79.3 187.7 91.7 225.2 99.5C262.7 107.3 300.3 110.7 337.8 106C375.3 101.3 412.7 88.7 450.2 80.2C487.7 71.7 525.3 67.3 562.8 64.2C600.3 61 637.7 59 675.2 68.2C712.7 77.3 750.3 97.7 787.8 103.8C825.3 110 862.7 102 881.3 98L900 94L900 251L881.3 251C862.7 251 825.3 251 787.8 251C750.3 251 712.7 251 675.2 251C637.7 251 600.3 251 562.8 251C525.3 251 487.7 251 450.2 251C412.7 251 375.3 251 337.8 251C300.3 251 262.7 251 225.2 251C187.7 251 150.3 251 112.8 251C75.3 251 37.7 251 18.8 251L0 251Z" fill="#aca5ff"></path><path d="M0 140L18.8 135.8C37.7 131.7 75.3 123.3 112.8 119.5C150.3 115.7 187.7 116.3 225.2 117.2C262.7 118 300.3 119 337.8 121.5C375.3 124 412.7 128 450.2 131.2C487.7 134.3 525.3 136.7 562.8 131.7C600.3 126.7 637.7 114.3 675.2 112.8C712.7 111.3 750.3 120.7 787.8 122C825.3 123.3 862.7 116.7 881.3 113.3L900 110L900 251L881.3 251C862.7 251 825.3 251 787.8 251C750.3 251 712.7 251 675.2 251C637.7 251 600.3 251 562.8 251C525.3 251 487.7 251 450.2 251C412.7 251 375.3 251 337.8 251C300.3 251 262.7 251 225.2 251C187.7 251 150.3 251 112.8 251C75.3 251 37.7 251 18.8 251L0 251Z" fill="#8b80ef"></path><path d="M0 158L18.8 160.7C37.7 163.3 75.3 168.7 112.8 172.7C150.3 176.7 187.7 179.3 225.2 175.2C262.7 171 300.3 160 337.8 161.2C375.3 162.3 412.7 175.7 450.2 175.2C487.7 174.7 525.3 160.3 562.8 156.3C600.3 152.3 637.7 158.7 675.2 161.8C712.7 165 750.3 165 787.8 166.8C825.3 168.7 862.7 172.3 881.3 174.2L900 176L900 251L881.3 251C862.7 251 825.3 251 787.8 251C750.3 251 712.7 251 675.2 251C637.7 251 600.3 251 562.8 251C525.3 251 487.7 251 450.2 251C412.7 251 375.3 251 337.8 251C300.3 251 262.7 251 225.2 251C187.7 251 150.3 251 112.8 251C75.3 251 37.7 251 18.8 251L0 251Z" fill="#695cdd"></path><path d="M0 185L18.8 189.8C37.7 194.7 75.3 204.3 112.8 204C150.3 203.7 187.7 193.3 225.2 192.3C262.7 191.3 300.3 199.7 337.8 202C375.3 204.3 412.7 200.7 450.2 197C487.7 193.3 525.3 189.7 562.8 188.8C600.3 188 637.7 190 675.2 195C712.7 200 750.3 208 787.8 213C825.3 218 862.7 220 881.3 221L900 222L900 251L881.3 251C862.7 251 825.3 251 787.8 251C750.3 251 712.7 251 675.2 251C637.7 251 600.3 251 562.8 251C525.3 251 487.7 251 450.2 251C412.7 251 375.3 251 337.8 251C300.3 251 262.7 251 225.2 251C187.7 251 150.3 251 112.8 251C75.3 251 37.7 251 18.8 251L0 251Z" fill="#4338ca"></path></svg>